<svg viewBox="0 0 33 33" fill="none">
<path d="M32 17.8964C31.7285 20.8342 30.626 23.6339 28.8213 25.968C27.0167 28.302 24.5847 30.0739 21.8099 31.0762C19.035 32.0785 16.0321 32.2698 13.1525 31.6277C10.2729 30.9856 7.63569 29.5367 5.5495 27.4505C3.46331 25.3643 2.0144 22.7271 1.37231 19.8475C0.730229 16.9679 0.921527 13.965 1.92382 11.1901C2.92612 8.41527 4.69796 5.98326 7.03201 4.17865C9.36607 2.37404 12.1658 1.27149 15.1036 1C13.3836 3.32695 12.5559 6.19396 12.7711 9.07958C12.9863 11.9652 14.2301 14.6777 16.2762 16.7238C18.3223 18.7699 21.0348 20.0137 23.9204 20.2289C26.806 20.4441 29.673 19.6164 32 17.8964Z" stroke="#1F1F1F" stroke-width="2" stroke-linecap="round" stroke-linejoin="round"/>
</svg>
