<svg viewBox="0 0 37 37" fill="none">
<path d="M23.2308 33V28.0306C23.2769 27.4183 23.1976 26.8028 22.9982 26.2249C22.7987 25.6471 22.4836 25.1202 22.0738 24.6792C25.9385 24.2298 30 22.7017 30 15.6907C29.9997 13.8979 29.3387 12.1738 28.1538 10.8754C28.7149 9.30688 28.6752 7.57318 28.0431 6.0344C28.0431 6.0344 26.5908 5.58498 23.2308 7.93484C20.4099 7.1372 17.4363 7.1372 14.6154 7.93484C11.2554 5.58498 9.80308 6.0344 9.80308 6.0344C9.17092 7.57318 9.13125 9.30688 9.69231 10.8754C8.49862 12.1835 7.83695 13.9231 7.84615 15.7292C7.84615 22.6889 11.9077 24.2169 15.7723 24.7177C15.3674 25.1543 15.0551 25.6749 14.8558 26.2457C14.6564 26.8164 14.5745 27.4246 14.6154 28.0306V33M14.6154 29.1478C8.46154 31.0739 8.46154 25.9376 6 25.2955L14.6154 29.1478Z" stroke="#F1F1F1" stroke-width="2" stroke-linecap="round" stroke-linejoin="round"/>
</svg>
