<svg viewBox="0 0 1000 1000">
<g><g transform="translate(0.000000,511.000000) scale(0.100000,-0.100000)"><path d="M4941.5,5001.2c-25.9-10.8-56-38.8-69-62.5c-15.1-28-23.7-269.4-23.7-681.2v-638.1l53.9-51.7c64.7-64.7,116.4-66.8,191.8-8.6l56.1,43.1v655.3c0,590.6-4.3,657.5-36.6,696.3C5066.5,5007.7,5004,5024.9,4941.5,5001.2z"/><path d="M3145.8,3988.1c-23.7-23.7-43.1-66.8-43.1-94.8c0-71.1,252.2-618.7,306.1-663.9c64.7-58.2,157.4-49.6,209.1,17.3c25.9,32.3,45.3,69,45.3,84.1c0,49.6-282.4,646.7-319,674.7C3292.4,4044.1,3195.4,4037.7,3145.8,3988.1z"/><path d="M6644.4,3983.8c-23.7-28-103.5-183.2-176.8-344.9c-125-275.9-133.6-299.6-105.6-355.7c38.8-79.7,131.5-112.1,204.8-71.1c64.7,36.6,327.7,575.5,329.8,674.7C6896.6,4016.1,6730.6,4078.6,6644.4,3983.8z"/><path d="M1404.1,3427.6c-60.4-25.9-99.2-109.9-84.1-176.8c8.6-28,215.6-230.6,491.5-478.5c508.7-457,545.4-480.7,644.5-390.2c32.3,30.2,43.1,62.5,38.8,116.4c-6.5,69-45.3,112.1-394.5,429c-439.7,400.9-586.3,521.7-620.8,519.5C1464.5,3447,1432.2,3438.4,1404.1,3427.6z"/><path d="M8424.9,3391c-41-32.3-265.2-232.8-498-444c-388-351.4-426.8-392.3-426.8-454.8c0-101.3,103.5-181.1,191.9-146.6c51.7,19.4,965.7,840.7,980.8,881.6c34.5,90.5-19.4,187.5-118.6,211.2C8513.3,3449.2,8480.9,3436.3,8424.9,3391z"/><path d="M4579.3,2899.5C2850.5,2627.9,1770.6,871.1,2318.1-773.6c291-870.8,1013.1-1573.6,1873.2-1823.6c429-125,976.5-150.9,1366.6-66.8C6685.3-2418.3,7526-1577.6,7771.7-452.4c56.1,258.7,56.1,862.2,0,1120.9c-194,892.4-760.9,1608.1-1575.7,1996.1C5713.2,2893.1,5103.1,2983.6,4579.3,2899.5z M5534.2,2567.6c1069.2-235,1856-1118.8,1970.2-2213.8c77.6-741.5-189.7-1487.4-726.4-2024.1c-754.5-754.5-1886.1-952.8-2849.7-495.8c-741.5,349.2-1265.3,1036.8-1409.8,1843c-36.6,206.9-36.6,655.3,0,862.2c198.3,1110.1,1108,1955.1,2233.2,2078C4922.1,2634.4,5348.9,2608.5,5534.2,2567.6z"/><path d="M1024.8,1722.6c-66.8-51.7-77.6-166-17.3-219.9c32.3-28,549.7-239.3,629.4-254.4c125-25.9,224.2,97,168.1,209.1c-23.7,49.6-81.9,79.8-351.4,183.2c-176.8,69-334.1,127.2-347.1,127.2C1093.7,1767.8,1057.1,1748.4,1024.8,1722.6z"/><path d="M8700.8,1703.2c-405.2-153.1-482.9-194-510.9-260.8c-23.7-56-21.6-73.3,12.9-120.7c75.4-99.2,107.8-97,439.8,28c170.3,64.7,327.6,133.6,349.2,153.1c60.4,53.9,49.6,166-17.2,219.9C8903.4,1778.6,8905.6,1778.6,8700.8,1703.2z"/><path d="M147.4,220.1c-32.3-28-47.4-64.7-47.4-112.1c0-47.4,15.1-84.1,47.4-112.1C192.7-40.7,248.7-42.9,848-42.9h653.1l45.3,49.6c60.4,64.7,60.4,146.6-2.1,204.8c-49.6,47.4-62.5,47.4-698.4,47.4C248.7,258.9,192.7,256.8,147.4,220.1z"/><path d="M8448.6,194.3c-58.2-58.2-56-153.1,6.5-211.2c49.6-47.4,62.5-47.4,709.2-47.4c631.6,0,659.6,2.1,696.3,43.1c56,62.5,51.7,170.3-8.6,219.9c-45.3,36.6-101.3,38.8-704.9,38.8C8519.7,237.4,8489.6,235.2,8448.6,194.3z"/><path d="M1345.9-1155.2c-166-64.7-319-133.6-338.4-153c-49.6-45.3-49.6-161.7,0-204.8c75.4-66.8,114.3-60.4,444.1,69c334.1,131.5,379.4,163.8,379.4,271.6c0,45.3-97,138-144.4,138C1665-1036.6,1511.9-1090.5,1345.9-1155.2z"/><path d="M8258.9-1056c-66.8-28-99.2-120.7-66.8-196.2c19.4-51.7,69-77.6,325.5-181.1c323.3-127.2,420.3-142.3,476.4-79.8c49.6,53.9,45.3,161.7-4.3,206.9c-36.6,32.3-629.4,273.8-666.1,269.5C8315-1036.6,8286.9-1045.2,8258.9-1056z"/><path d="M2305.2-2127.3c-34.5-12.9-829.9-720-933.4-829.9c-45.3-47.4-58.2-81.9-53.9-129.3c8.6-84.1,99.2-157.4,172.5-140.1c25.9,8.6,265.1,209.1,530.3,446.2c446.2,403.1,478.5,437.6,478.5,506.6C2499.2-2168.3,2397.9-2092.8,2305.2-2127.3z"/><path d="M7558.4-2155.3c-43.1-34.5-58.2-64.7-58.2-118.6c0-66.8,34.5-103.5,474.2-500.1c260.8-234.9,497.9-435.4,528.1-446.2c79.8-30.2,170.3,41,178.9,142.3c6.5,77.6,43.1,40.9-879.5,873C7696.3-2112.2,7631.6-2099.3,7558.4-2155.3z"/><path d="M3400.2-3032.7c-51.7-60.4-297.5-605.7-297.5-659.6c0-64.7,84.1-144.4,153-144.4c30.2,0,75.4,21.6,99.2,49.6c43.1,47.4,308.2,610,308.2,655.3c0,12.9-19.4,47.4-45.3,79.8C3564-2985.2,3451.9-2974.5,3400.2-3032.7z"/><path d="M6396.5-3032.7c-71.1-81.9-64.7-114.2,81.9-431.1c144.4-308.3,191.9-372.9,278.1-372.9c64.7,0,140.1,77.6,140.1,142.3c0,60.4-241.4,601.4-295.3,659.6C6556-2985.2,6439.6-2985.2,6396.5-3032.7z"/><path d="M4896.2-3347.4c-47.4-49.6-47.4-62.5-47.4-698.4c0-597.1,2.2-653.1,38.8-698.4c28-32.3,64.7-47.4,112.1-47.4s84.1,15.1,112.1,47.4c36.6,45.3,38.8,101.3,38.8,700.6v653.1l-49.6,45.3C5036.3-3284.9,4954.4-3284.9,4896.2-3347.4z"/></g></g>
</svg>