<svg viewBox="0 0 37 37" fill="none" >
<path d="M35.4584 4.625C33.982 5.66636 32.3474 6.46284 30.6175 6.98375C29.689 5.91616 28.4551 5.15948 27.0825 4.81605C25.71 4.47262 24.2651 4.55901 22.9432 5.06353C21.6214 5.56805 20.4864 6.46637 19.6917 7.63698C18.897 8.80759 18.4811 10.194 18.5 11.6088V13.1504C15.7907 13.2207 13.1062 12.6198 10.6853 11.4013C8.2645 10.1828 6.18259 8.38456 4.62502 6.16667C4.62502 6.16667 -1.54165 20.0417 12.3334 26.2083C9.15833 28.3635 5.37605 29.4442 1.54169 29.2917C15.4167 37 32.375 29.2917 32.375 11.5625C32.3736 11.1331 32.3323 10.7047 32.2517 10.2829C33.8251 8.73122 34.9355 6.7721 35.4584 4.625V4.625Z" stroke="#F1F1F1" stroke-width="2" stroke-linecap="round" stroke-linejoin="round"/>
</svg>
