<svg viewBox="0 0 37 37" fill="none">
<path d="M34.7492 9.89746C34.566 9.1658 34.193 8.49542 33.6679 7.95404C33.1428 7.41266 32.4841 7.01945 31.7583 6.81413C29.1067 6.16663 18.5 6.16663 18.5 6.16663C18.5 6.16663 7.89332 6.16663 5.24165 6.87579C4.51591 7.08112 3.8572 7.47433 3.33206 8.01571C2.80692 8.55709 2.43395 9.22747 2.25082 9.95913C1.76553 12.6502 1.52814 15.3801 1.54165 18.1145C1.52435 20.8696 1.76175 23.6203 2.25082 26.3316C2.45271 27.0406 2.83404 27.6854 3.35796 28.2039C3.88187 28.7225 4.53067 29.0971 5.24165 29.2916C7.89332 30.0008 18.5 30.0008 18.5 30.0008C18.5 30.0008 29.1067 30.0008 31.7583 29.2916C32.4841 29.0863 33.1428 28.6931 33.6679 28.1517C34.193 27.6103 34.566 26.94 34.7492 26.2083C35.2307 23.5375 35.4681 20.8284 35.4583 18.1145C35.4756 15.3595 35.2382 12.6088 34.7492 9.89746V9.89746Z" stroke="#F1F1F1" stroke-width="2" stroke-linecap="round" stroke-linejoin="round"/>
<path d="M15.0312 23.1559L23.8958 18.1146L15.0312 13.0734V23.1559Z" stroke="#F1F1F1" stroke-width="2" stroke-linecap="round" stroke-linejoin="round"/>
</svg>
